<?xml version="1.0" encoding="UTF-8"?>
<svg width="512px" height="512px" viewBox="0 0 512 512" version="1.1" xmlns="http://www.w3.org/2000/svg" xmlns:xlink="http://www.w3.org/1999/xlink">
    <!-- Generator: Sketch 46.1 (44463) - http://www.bohemiancoding.com/sketch -->
    <title>calendar</title>
    <desc>Created with Sketch.</desc>
    <defs></defs>
    <g id="Page-1" stroke="none" stroke-width="1" fill="none" fill-rule="evenodd">
        <g id="calendar" fill-rule="nonzero" fill="#373937">
            <g transform="translate(0.000000, 5.000000)" id="Shape">
                <path d="M373.651064,34.9217391 C369.293617,15.2782609 351.86383,5.63491283e-13 331.165957,5.63491283e-13 C326.808511,5.63491283e-13 322.451064,4.36521739 322.451064,8.73043478 C322.451064,13.0956522 326.808511,17.4608696 331.165957,17.4608696 C345.32766,17.4608696 357.310638,29.4652174 357.310638,43.6521739 C357.310638,57.8391304 345.32766,69.8434783 331.165957,69.8434783 C326.808511,69.8434783 322.451064,74.2086957 322.451064,78.573913 C322.451064,82.9391304 326.808511,87.3043478 331.165957,87.3043478 C351.86383,87.3043478 369.293617,72.026087 373.651064,52.3826087 L488.034043,52.3826087 L488.034043,130.956522 L17.4297872,130.956522 L17.4297872,52.3826087 L165.582979,52.3826087 C169.940426,52.3826087 174.297872,48.0173913 174.297872,43.6521739 C174.297872,39.2869565 169.940426,34.9217391 165.582979,34.9217391 L149.242553,34.9217391 C152.510638,25.1 162.314894,17.4608696 174.297872,17.4608696 C188.459574,17.4608696 200.442553,29.4652174 200.442553,43.6521739 C200.442553,57.8391304 188.459574,69.8434783 174.297872,69.8434783 C169.940426,69.8434783 165.582979,74.2086957 165.582979,78.573913 C165.582979,82.9391304 169.940426,87.3043478 174.297872,87.3043478 C198.26383,87.3043478 217.87234,67.6608696 217.87234,43.6521739 C217.87234,19.6434783 198.26383,-5.68434189e-14 174.297872,-5.68434189e-14 C153.6,-5.68434189e-14 136.170213,15.2782609 131.812766,34.9217391 L0,34.9217391 L0,497.634783 L505.46383,497.634783 L505.46383,34.9217391 L373.651064,34.9217391 L373.651064,34.9217391 Z M488.034043,480.173913 L17.4297872,480.173913 L17.4297872,148.417391 L488.034043,148.417391 L488.034043,480.173913 Z"></path>
                <path d="M226.587234,17.4608696 C240.748936,17.4608696 252.731915,29.4652174 252.731915,43.6521739 C252.731915,57.8391304 240.748936,69.8434783 226.587234,69.8434783 C222.229787,69.8434783 217.87234,74.2086957 217.87234,78.573913 C217.87234,82.9391304 222.229787,87.3043478 226.587234,87.3043478 C250.553191,87.3043478 270.161702,67.6608696 270.161702,43.6521739 C270.161702,19.6434783 250.553191,0 226.587234,0 C222.229787,0 217.87234,4.36521739 217.87234,8.73043478 C217.87234,13.0956522 222.229787,17.4608696 226.587234,17.4608696 L226.587234,17.4608696 Z"></path>
                <path d="M278.876596,17.4608696 C293.038298,17.4608696 305.021277,29.4652174 305.021277,43.6521739 C305.021277,57.8391304 293.038298,69.8434783 278.876596,69.8434783 C274.519149,69.8434783 270.161702,74.2086957 270.161702,78.573913 C270.161702,82.9391304 274.519149,87.3043478 278.876596,87.3043478 C302.842553,87.3043478 322.451064,67.6608696 322.451064,43.6521739 C322.451064,19.6434783 302.842553,0 278.876596,0 C274.519149,0 270.161702,4.36521739 270.161702,8.73043478 C270.161702,13.0956522 274.519149,17.4608696 278.876596,17.4608696 L278.876596,17.4608696 Z"></path>
                <path d="M200.442553,209.530435 C200.442553,213.895652 196.085106,218.26087 191.72766,218.26087 C187.370213,218.26087 183.012766,213.895652 183.012766,209.530435 C183.012766,205.165217 187.370213,200.8 191.72766,200.8 C196.085106,200.8 200.442553,205.165217 200.442553,209.530435 L200.442553,209.530435 Z"></path>
                <path d="M261.446809,209.530435 C261.446809,213.895652 257.089362,218.26087 252.731915,218.26087 C248.374468,218.26087 244.017021,213.895652 244.017021,209.530435 C244.017021,205.165217 248.374468,200.8 252.731915,200.8 C257.089362,200.8 261.446809,205.165217 261.446809,209.530435 L261.446809,209.530435 Z"></path>
                <path d="M322.451064,209.530435 C322.451064,213.895652 318.093617,218.26087 313.73617,218.26087 C309.378723,218.26087 305.021277,213.895652 305.021277,209.530435 C305.021277,205.165217 309.378723,200.8 313.73617,200.8 C318.093617,200.8 322.451064,205.165217 322.451064,209.530435 L322.451064,209.530435 Z"></path>
                <path d="M383.455319,209.530435 C383.455319,213.895652 379.097872,218.26087 374.740426,218.26087 C370.382979,218.26087 366.025532,213.895652 366.025532,209.530435 C366.025532,205.165217 370.382979,200.8 374.740426,200.8 C379.097872,200.8 383.455319,205.165217 383.455319,209.530435 L383.455319,209.530435 Z"></path>
                <path d="M444.459574,209.530435 C444.459574,213.895652 440.102128,218.26087 435.744681,218.26087 C431.387234,218.26087 427.029787,213.895652 427.029787,209.530435 C427.029787,205.165217 431.387234,200.8 435.744681,200.8 C440.102128,200.8 444.459574,205.165217 444.459574,209.530435 L444.459574,209.530435 Z"></path>
                <path d="M78.4340426,279.373913 C78.4340426,283.73913 74.0765957,288.104348 69.7191489,288.104348 C65.3617021,288.104348 61.0042553,283.73913 61.0042553,279.373913 C61.0042553,275.008696 65.3617021,270.643478 69.7191489,270.643478 C74.0765957,270.643478 78.4340426,275.008696 78.4340426,279.373913 L78.4340426,279.373913 Z"></path>
                <path d="M139.438298,279.373913 C139.438298,283.73913 135.080851,288.104348 130.723404,288.104348 C126.365957,288.104348 122.008511,283.73913 122.008511,279.373913 C122.008511,275.008696 126.365957,270.643478 130.723404,270.643478 C135.080851,270.643478 139.438298,275.008696 139.438298,279.373913 L139.438298,279.373913 Z"></path>
                <path d="M200.442553,279.373913 C200.442553,283.73913 196.085106,288.104348 191.72766,288.104348 C187.370213,288.104348 183.012766,283.73913 183.012766,279.373913 C183.012766,275.008696 187.370213,270.643478 191.72766,270.643478 C196.085106,270.643478 200.442553,275.008696 200.442553,279.373913 L200.442553,279.373913 Z"></path>
                <path d="M261.446809,279.373913 C261.446809,283.73913 257.089362,288.104348 252.731915,288.104348 C248.374468,288.104348 244.017021,283.73913 244.017021,279.373913 C244.017021,275.008696 248.374468,270.643478 252.731915,270.643478 C257.089362,270.643478 261.446809,275.008696 261.446809,279.373913 L261.446809,279.373913 Z"></path>
                <path d="M322.451064,279.373913 C322.451064,283.73913 318.093617,288.104348 313.73617,288.104348 C309.378723,288.104348 305.021277,283.73913 305.021277,279.373913 C305.021277,275.008696 309.378723,270.643478 313.73617,270.643478 C318.093617,270.643478 322.451064,275.008696 322.451064,279.373913 L322.451064,279.373913 Z"></path>
                <path d="M383.455319,279.373913 C383.455319,283.73913 379.097872,288.104348 374.740426,288.104348 C370.382979,288.104348 366.025532,283.73913 366.025532,279.373913 C366.025532,275.008696 370.382979,270.643478 374.740426,270.643478 C379.097872,270.643478 383.455319,275.008696 383.455319,279.373913 L383.455319,279.373913 Z"></path>
                <path d="M444.459574,279.373913 C444.459574,283.73913 440.102128,288.104348 435.744681,288.104348 C431.387234,288.104348 427.029787,283.73913 427.029787,279.373913 C427.029787,275.008696 431.387234,270.643478 435.744681,270.643478 C440.102128,270.643478 444.459574,275.008696 444.459574,279.373913 L444.459574,279.373913 Z"></path>
                <path d="M78.4340426,340.486957 C78.4340426,344.852174 74.0765957,349.217391 69.7191489,349.217391 C65.3617021,349.217391 61.0042553,344.852174 61.0042553,340.486957 C61.0042553,336.121739 65.3617021,331.756522 69.7191489,331.756522 C74.0765957,331.756522 78.4340426,336.121739 78.4340426,340.486957 L78.4340426,340.486957 Z"></path>
                <path d="M139.438298,340.486957 C139.438298,344.852174 135.080851,349.217391 130.723404,349.217391 C126.365957,349.217391 122.008511,344.852174 122.008511,340.486957 C122.008511,336.121739 126.365957,331.756522 130.723404,331.756522 C135.080851,331.756522 139.438298,336.121739 139.438298,340.486957 L139.438298,340.486957 Z"></path>
                <path d="M200.442553,340.486957 C200.442553,344.852174 196.085106,349.217391 191.72766,349.217391 C187.370213,349.217391 183.012766,344.852174 183.012766,340.486957 C183.012766,336.121739 187.370213,331.756522 191.72766,331.756522 C196.085106,331.756522 200.442553,336.121739 200.442553,340.486957 L200.442553,340.486957 Z"></path>
                <path d="M261.446809,340.486957 C261.446809,344.852174 257.089362,349.217391 252.731915,349.217391 C248.374468,349.217391 244.017021,344.852174 244.017021,340.486957 C244.017021,336.121739 248.374468,331.756522 252.731915,331.756522 C257.089362,331.756522 261.446809,336.121739 261.446809,340.486957 L261.446809,340.486957 Z"></path>
                <path d="M322.451064,340.486957 C322.451064,344.852174 318.093617,349.217391 313.73617,349.217391 C309.378723,349.217391 305.021277,344.852174 305.021277,340.486957 C305.021277,336.121739 309.378723,331.756522 313.73617,331.756522 C318.093617,331.756522 322.451064,336.121739 322.451064,340.486957 L322.451064,340.486957 Z"></path>
                <path d="M383.455319,340.486957 C383.455319,344.852174 379.097872,349.217391 374.740426,349.217391 C370.382979,349.217391 366.025532,344.852174 366.025532,340.486957 C366.025532,336.121739 370.382979,331.756522 374.740426,331.756522 C379.097872,331.756522 383.455319,336.121739 383.455319,340.486957 L383.455319,340.486957 Z"></path>
                <path d="M444.459574,340.486957 C444.459574,344.852174 440.102128,349.217391 435.744681,349.217391 C431.387234,349.217391 427.029787,344.852174 427.029787,340.486957 C427.029787,336.121739 431.387234,331.756522 435.744681,331.756522 C440.102128,331.756522 444.459574,336.121739 444.459574,340.486957 L444.459574,340.486957 Z"></path>
                <path d="M78.4340426,410.330435 C78.4340426,414.695652 74.0765957,419.06087 69.7191489,419.06087 C65.3617021,419.06087 61.0042553,414.695652 61.0042553,410.330435 C61.0042553,405.965217 65.3617021,401.6 69.7191489,401.6 C74.0765957,401.6 78.4340426,405.965217 78.4340426,410.330435 L78.4340426,410.330435 Z"></path>
                <path d="M139.438298,410.330435 C139.438298,414.695652 135.080851,419.06087 130.723404,419.06087 C126.365957,419.06087 122.008511,414.695652 122.008511,410.330435 C122.008511,405.965217 126.365957,401.6 130.723404,401.6 C135.080851,401.6 139.438298,405.965217 139.438298,410.330435 L139.438298,410.330435 Z"></path>
                <path d="M200.442553,410.330435 C200.442553,414.695652 196.085106,419.06087 191.72766,419.06087 C187.370213,419.06087 183.012766,414.695652 183.012766,410.330435 C183.012766,405.965217 187.370213,401.6 191.72766,401.6 C196.085106,401.6 200.442553,405.965217 200.442553,410.330435 L200.442553,410.330435 Z"></path>
                <path d="M261.446809,410.330435 C261.446809,414.695652 257.089362,419.06087 252.731915,419.06087 C248.374468,419.06087 244.017021,414.695652 244.017021,410.330435 C244.017021,405.965217 248.374468,401.6 252.731915,401.6 C257.089362,401.6 261.446809,405.965217 261.446809,410.330435 L261.446809,410.330435 Z"></path>
                <path d="M322.451064,410.330435 C322.451064,414.695652 318.093617,419.06087 313.73617,419.06087 C309.378723,419.06087 305.021277,414.695652 305.021277,410.330435 C305.021277,405.965217 309.378723,401.6 313.73617,401.6 C318.093617,401.6 322.451064,405.965217 322.451064,410.330435 L322.451064,410.330435 Z"></path>
            </g>
        </g>
    </g>
</svg>