<?xml version="1.0" encoding="UTF-8"?>
<svg width="512px" height="512px" viewBox="0 0 512 512" version="1.1" xmlns="http://www.w3.org/2000/svg" xmlns:xlink="http://www.w3.org/1999/xlink">
    <!-- Generator: Sketch 46.1 (44463) - http://www.bohemiancoding.com/sketch -->
    <title>backpack</title>
    <desc>Created with Sketch.</desc>
    <defs></defs>
    <g id="Page-1" stroke="none" stroke-width="1" fill="none" fill-rule="evenodd">
        <g id="backpack" fill-rule="nonzero" fill="#373937">
            <g transform="translate(59.000000, 0.000000)" id="Shape">
                <path d="M385.792,212.238472 L335.628,212.238472 L335.628,177.906526 L335.628,109.978199 C363.593,106.53692 385.293,83.3003041 385.293,55.217154 C385.294,24.7696218 359.792,0 328.447,0 L271.573,0 L228.67,0 L162.106,0 L119.203,0 L65.822,0 C34.477,0 8.976,24.7696218 8.976,55.217154 C8.976,83.2104795 30.538,106.387212 58.372,109.945263 L58.372,177.906526 L58.372,212.238472 L8.209,212.238472 C4.01,212.238472 0.605,215.635836 0.605,219.827649 L0.605,354.68825 C0.605,374.355836 16.637,390.356585 36.342,390.356585 L58.373,390.356585 L58.373,426.635727 C58.373,443.047673 71.4,456.47345 87.675,457.17009 L87.675,503.414768 C87.675,507.605583 91.079,511.003945 95.279,511.003945 L137.14,511.003945 C141.339,511.003945 144.744,507.605583 144.744,503.414768 L144.744,457.205021 L250.933,457.205021 L250.933,503.414768 C250.933,507.605583 254.337,511.003945 258.537,511.003945 L300.398,511.003945 C304.597,511.003945 308.002,507.605583 308.002,503.414768 L308.002,457.055314 C323.488,455.545263 335.629,442.481778 335.629,426.636725 L335.629,390.357583 L357.66,390.357583 C377.366,390.357583 393.397,374.356834 393.397,354.689248 L393.397,219.827649 C393.396,215.635836 389.992,212.238472 385.792,212.238472 Z M236.275,15.1783548 L263.97,15.1783548 L263.97,54.3139181 L236.275,54.3139181 L236.275,15.1783548 Z M169.711,15.1783548 L221.068,15.1783548 L221.068,54.3139181 L169.711,54.3139181 L169.711,15.1783548 Z M126.808,15.1783548 L154.503,15.1783548 L154.503,54.3139181 L126.808,54.3139181 L126.808,15.1783548 Z M58.373,328.453489 L58.373,375.177232 L36.342,375.177232 C25.021,375.176234 15.813,365.984187 15.813,354.687251 L15.813,270.941817 L58.373,270.941817 L58.373,328.453489 Z M58.373,255.76446 L15.813,255.76446 L15.813,227.416827 L58.373,227.416827 L58.373,255.76446 Z M65.977,54.3129201 C61.778,54.3129201 58.373,57.7112827 58.373,61.9020975 L58.373,94.60223 C38.958,91.214846 24.184,74.849809 24.184,55.217154 C24.184,33.1392749 42.863,15.1783548 65.823,15.1783548 L111.6,15.1783548 L111.6,54.3139181 L65.977,54.3139181 L65.977,54.3129201 Z M73.581,320.86531 L73.581,226.174253 C85.73,243.562292 104.236,256.208593 125.72,260.706807 L125.72,320.86531 L73.581,320.86531 Z M125.72,336.042667 L125.72,369.328655 L73.581,369.328655 L73.581,336.042667 L125.72,336.042667 Z M129.535,495.823595 L102.882,495.823595 L102.882,457.202027 L129.535,457.202027 L129.535,495.823595 Z M292.793,495.823595 L266.14,495.823595 L266.14,457.202027 L292.793,457.202027 L292.793,495.823595 Z M320.419,426.633731 C320.42,435.120156 313.504,442.023673 305,442.023673 L300.395,442.023673 L258.534,442.023673 L137.139,442.023673 L95.278,442.023673 L88.999,442.023673 C80.497,442.023673 73.579,435.120156 73.579,426.633731 L73.579,384.505014 L133.322,384.505014 L154.431,384.505014 L239.566,384.505014 L260.675,384.505014 L320.418,384.505014 L320.418,426.633731 L320.419,426.633731 Z M154.433,128.808421 L133.324,128.808421 C129.125,128.808421 125.72,132.205786 125.72,136.397598 L125.72,199.95147 C120.596,195.352452 117.366,188.690464 117.366,181.286924 L117.366,110.434308 L170.391,110.434308 L170.391,181.286924 C170.391,188.689466 167.162,195.35345 162.037,199.95147 L162.037,136.397598 C162.037,132.205786 158.632,128.808421 154.433,128.808421 Z M260.677,128.808421 L239.568,128.808421 C235.369,128.808421 231.964,132.205786 231.964,136.397598 L231.964,199.95147 C226.84,195.352452 223.61,188.690464 223.61,181.286924 L223.61,110.434308 L276.635,110.434308 L276.635,181.286924 C276.635,188.689466 273.406,195.35345 268.281,199.95147 L268.281,136.397598 C268.281,132.205786 264.877,128.808421 260.677,128.808421 Z M247.172,336.042667 L253.074,336.042667 L253.074,369.328655 L247.172,369.328655 L247.172,336.042667 Z M247.171,206.334004 L247.171,143.986776 L247.172,143.986776 L253.074,143.986776 L253.074,206.334004 C252.548,206.365942 252.019,206.389895 251.484,206.389895 L248.761,206.389895 C248.226,206.389895 247.697,206.36694 247.171,206.334004 Z M247.173,320.86531 L247.173,262.511283 L250.859,262.511283 C251.602,262.511283 252.335,262.474355 253.074,262.455392 L253.074,320.864312 L247.173,320.864312 L247.173,320.86531 Z M250.859,247.33193 L247.172,247.33193 L247.172,221.526331 C247.7,221.54729 248.228,221.56825 248.762,221.56825 L251.485,221.56825 C252.018,221.56825 252.547,221.548288 253.075,221.527329 L253.075,247.276039 C252.337,247.299992 251.602,247.33193 250.859,247.33193 Z M162.037,320.86531 L162.037,262.511283 L231.964,262.511283 L231.964,320.86531 L162.037,320.86531 Z M231.964,336.042667 L231.964,369.328655 L162.037,369.328655 L162.037,336.042667 L231.964,336.042667 Z M140.928,336.042667 L146.83,336.042667 L146.83,369.328655 L140.928,369.328655 L140.928,336.042667 Z M140.927,206.334004 L140.927,143.986776 L140.928,143.986776 L146.83,143.986776 L146.83,206.334004 C146.304,206.365942 145.775,206.389895 145.24,206.389895 L142.517,206.389895 C141.982,206.389895 141.453,206.36694 140.927,206.334004 Z M140.928,320.86531 L140.928,262.45639 C141.666,262.474355 142.4,262.512281 143.142,262.512281 L146.829,262.512281 L146.829,320.866308 L140.928,320.866308 L140.928,320.86531 Z M143.143,247.332928 C142.4,247.332928 141.666,247.30099 140.928,247.277037 L140.928,221.528327 C141.456,221.54729 141.984,221.567251 142.518,221.567251 L145.241,221.567251 C145.774,221.567251 146.302,221.54729 146.831,221.526331 L146.831,247.33193 L143.143,247.33193 L143.143,247.332928 Z M320.42,369.328655 L268.281,369.328655 L268.281,336.042667 L320.42,336.042667 L320.42,369.328655 Z M320.42,320.86531 L268.281,320.86531 L268.281,260.706807 C289.765,256.208593 308.271,243.562292 320.42,226.174253 L320.42,320.86531 Z M320.42,97.831922 L320.42,177.906526 C320.42,210.185481 298.233,237.388351 268.281,245.127236 L268.281,217.899415 C282.17,211.526862 291.843,197.517224 291.843,181.287922 L291.843,102.846129 C291.843,98.6553138 288.439,95.2569513 284.239,95.2569513 L216.006,95.2569513 C211.807,95.2569513 208.402,98.6553138 208.402,102.846129 L208.402,181.287922 C208.402,197.517224 218.074,211.526862 231.964,217.899415 L231.964,247.333926 L162.037,247.333926 L162.037,217.899415 C175.926,211.526862 185.599,197.517224 185.599,181.287922 L185.599,102.846129 C185.599,98.6553138 182.195,95.2569513 177.995,95.2569513 L109.762,95.2569513 C105.563,95.2569513 102.158,98.6553138 102.158,102.846129 L102.158,181.287922 C102.158,197.517224 111.83,211.526862 125.72,217.899415 L125.72,245.127236 C95.768,237.389349 73.581,210.18648 73.581,177.906526 L73.581,97.831922 L73.581,69.4912749 L119.204,69.4912749 L162.107,69.4912749 L228.671,69.4912749 L271.574,69.4912749 L320.42,69.4912749 L320.42,97.831922 Z M328.025,54.3129201 L279.179,54.3129201 L279.179,15.1783548 L328.449,15.1783548 C351.408,15.1783548 370.087,33.1392749 370.087,55.217154 C370.087,74.9396335 355.176,91.3655517 335.629,94.6481404 L335.629,61.9020975 C335.629,57.7112827 332.225,54.3129201 328.025,54.3129201 Z M378.189,354.68825 C378.189,365.986183 368.98,375.177232 357.66,375.177232 L335.629,375.177232 L335.629,328.454487 L335.629,270.942815 L378.189,270.942815 L378.189,354.68825 Z M378.189,255.76446 L335.629,255.76446 L335.629,227.416827 L378.189,227.416827 L378.189,255.76446 Z"></path>
            </g>
        </g>
    </g>
</svg>