<?xml version="1.0" encoding="UTF-8"?>
<svg width="512px" height="512px" viewBox="0 0 512 512" version="1.1" xmlns="http://www.w3.org/2000/svg" xmlns:xlink="http://www.w3.org/1999/xlink">
    <!-- Generator: Sketch 46.1 (44463) - http://www.bohemiancoding.com/sketch -->
    <title>bus</title>
    <desc>Created with Sketch.</desc>
    <defs></defs>
    <g id="Page-1" stroke="none" stroke-width="1" fill="none" fill-rule="evenodd">
        <g id="bus" fill-rule="nonzero" fill="#373937">
            <g transform="translate(0.000000, 124.000000)" id="Shape">
                <path d="M486.4,102.4 L476.125867,102.4 L422.0672,11.0165333 C421.905067,10.7434667 421.725867,10.4874667 421.538133,10.2314667 C416.725333,3.82293333 409.070933,0 401.066667,0 L47.4624,0 C35.6949333,0 25.4805333,7.97866667 22.528,19.8314667 L6.39146667,102.826667 C2.74773333,103.799467 0,106.973867 0,110.933333 L0,187.733333 C0,211.259733 19.1402667,230.4 42.6666667,230.4 L62.72,230.4 C69.7685333,250.257067 88.6869333,264.533333 110.933333,264.533333 C133.179733,264.533333 152.098133,250.257067 159.146667,230.4 L230.4,230.4 L341.333333,230.4 L367.786667,230.4 C374.8352,250.257067 393.7536,264.533333 416,264.533333 C438.2464,264.533333 457.1648,250.257067 464.213333,230.4 L469.333333,230.4 C492.859733,230.4 512,211.259733 512,187.733333 L512,128 C512,113.885867 500.514133,102.4 486.4,102.4 Z M407.6544,20.1728 L456.2944,102.4 L349.866667,102.4 L349.866667,17.0666667 L401.066667,17.0666667 C403.6096,17.0666667 406.0416,18.2272 407.6544,20.1728 Z M128,102.4 L128,17.0666667 L221.866667,17.0666667 L221.866667,102.4 L128,102.4 Z M238.933333,17.0666667 L332.8,17.0666667 L332.8,102.4 L238.933333,102.4 L238.933333,17.0666667 Z M39.1765333,23.5349333 C40.1322667,19.7290667 43.5370667,17.0666667 47.4624,17.0666667 L110.933333,17.0666667 L110.933333,102.4 L23.8592,102.4 L39.1765333,23.5349333 Z M110.933333,247.466667 C92.1088,247.466667 76.8,232.157867 76.8,213.333333 C76.8,194.5088 92.1088,179.2 110.933333,179.2 C129.757867,179.2 145.066667,194.5088 145.066667,213.333333 C145.066667,232.157867 129.757867,247.466667 110.933333,247.466667 Z M416,247.466667 C397.175467,247.466667 381.866667,232.157867 381.866667,213.333333 C381.866667,194.5088 397.175467,179.2 416,179.2 C434.824533,179.2 450.133333,194.5088 450.133333,213.333333 C450.133333,232.157867 434.824533,247.466667 416,247.466667 Z M494.933333,187.733333 C494.933333,201.847467 483.447467,213.333333 469.333333,213.333333 L467.2,213.333333 C467.2,185.096533 444.2368,162.133333 416,162.133333 C387.7632,162.133333 364.8,185.096533 364.8,213.333333 L349.866667,213.333333 L349.866667,136.533333 L332.8,136.533333 L332.8,213.333333 L238.933333,213.333333 L238.933333,136.533333 L221.866667,136.533333 L221.866667,213.333333 L162.133333,213.333333 C162.133333,185.096533 139.170133,162.133333 110.933333,162.133333 C82.6965333,162.133333 59.7333333,185.096533 59.7333333,213.333333 L42.6666667,213.333333 C28.5525333,213.333333 17.0666667,201.847467 17.0666667,187.733333 L17.0666667,119.466667 L471.261867,119.466667 L486.4,119.466667 C491.101867,119.466667 494.933333,123.2896 494.933333,128 L494.933333,187.733333 Z"></path>
            </g>
        </g>
    </g>
</svg>