<?xml version="1.0" encoding="UTF-8"?>
<svg width="512px" height="512px" viewBox="0 0 512 512" version="1.1" xmlns="http://www.w3.org/2000/svg" xmlns:xlink="http://www.w3.org/1999/xlink">
    <!-- Generator: Sketch 46.1 (44463) - http://www.bohemiancoding.com/sketch -->
    <title>caravan</title>
    <desc>Created with Sketch.</desc>
    <defs></defs>
    <g id="Page-1" stroke="none" stroke-width="1" fill="none" fill-rule="evenodd">
        <g id="caravan" fill-rule="nonzero">
            <g transform="translate(2.000000, 0.000000)">
                <path d="M294.502703,396.885906 L180.202703,396.885906 L180.202703,257.718121 C180.202703,244.144966 191.186486,233.148993 204.744595,233.148993 L270.132432,233.148993 C283.690541,233.148993 294.674324,244.144966 294.674324,257.718121 L294.674324,396.885906 L294.502703,396.885906 Z" id="Shape" fill="#DBDBDB"></path>
                <path d="M237.352703,257.718121 C219.332432,257.718121 204.744595,272.322148 204.744595,290.362416 C204.744595,308.402685 219.332432,323.006711 237.352703,323.006711 C255.372973,323.006711 269.960811,308.402685 269.960811,290.362416 C269.960811,272.322148 255.372973,257.718121 237.352703,257.718121 Z M237.352703,306.856376 C228.256757,306.856376 221.048649,299.468456 221.048649,290.534228 C221.048649,281.6 228.428378,274.212081 237.352703,274.212081 C246.277027,274.212081 253.656757,281.6 253.656757,290.534228 C253.656757,299.468456 246.448649,306.856376 237.352703,306.856376 Z" id="Shape" fill="#373937"></path>
                <path d="M506.97027,334.002685 C506.97027,305.138255 495.814865,278.163758 476.936486,257.718121 L500.105405,257.718121 L451.021622,200.504698 L492.039189,200.504698 L434.889189,135.044295 L467.840541,135.044295 L384.432432,40.8912752 L300.852703,135.044295 L333.804054,135.044295 L297.763514,176.451007 C295.017568,176.279195 292.271622,176.107383 289.525676,176.107383 L234.95,176.107383 C225.339189,176.107383 216.071622,177.481879 207.147297,179.715436 L189.985135,159.613423 L231.002703,159.613423 L173.852703,94.1530201 L206.804054,94.1530201 L122.881081,0 L39.3013514,94.1530201 L72.2527027,94.1530201 L15.1027027,159.613423 L56.1202703,159.613423 L7.03648649,216.826846 L89.5864865,216.826846 L82.0351351,322.663087 L98.3391892,323.865772 L107.091892,200.504698 L42.5621622,200.504698 L91.6459459,143.291275 L50.9716216,143.291275 L108.121622,77.8308725 L75.6851351,77.8308725 L122.881081,24.7409396 L170.077027,77.8308725 L137.640541,77.8308725 L194.790541,143.291275 L154.116216,143.291275 L190.156757,185.385235 C181.060811,189.336913 172.651351,194.491275 165.1,200.67651 L138.67027,200.67651 L140.558108,227.822819 C129.402703,245.175839 122.881081,265.793289 122.881081,287.957047 L122.881081,334.002685 C122.881081,357.369128 130.089189,379.01745 142.274324,396.885906 L0.343243243,396.885906 L0.343243243,413.208054 L49.427027,413.208054 L49.427027,447.055034 C35.3540541,450.663087 24.8851351,463.377181 24.8851351,478.668456 C24.8851351,496.708725 39.472973,511.312752 57.4932432,511.312752 C75.5135135,511.312752 90.1013514,496.708725 90.1013514,478.668456 C90.1013514,463.548993 79.6324324,450.834899 65.5594595,447.055034 L65.5594595,413.208054 L155.660811,413.208054 C175.912162,433.481879 203.886486,445.852349 234.606757,445.852349 L286.951351,445.852349 C286.608108,448.601342 286.264865,451.178523 286.264865,454.099329 C286.264865,485.712752 312.008108,511.312752 343.414865,511.312752 C374.821622,511.312752 400.564865,485.54094 400.564865,454.099329 C400.564865,451.178523 400.221622,448.42953 399.878378,445.680537 C459.431081,443.103356 506.97027,394.136913 506.97027,334.002685 Z M73.9689189,478.668456 C73.9689189,487.774497 66.5891892,494.990604 57.6648649,494.990604 C48.7405405,494.990604 41.3608108,487.602685 41.3608108,478.668456 C41.3608108,469.734228 48.7405405,462.346309 57.6648649,462.346309 C66.5891892,462.346309 73.9689189,469.562416 73.9689189,478.668456 Z M369.844595,118.722148 L337.408108,118.722148 L384.432432,65.4604027 L431.628378,118.550336 L399.191892,118.550336 L456.341892,184.010738 L415.667568,184.010738 L464.751351,241.224161 L457.886486,241.224161 C452.222973,237.444295 446.216216,234.008054 439.694595,231.087248 L333.804054,185.041611 C328.140541,182.636242 322.305405,180.746309 316.47027,179.2 L369.844595,118.722148 Z M343.586486,494.990604 C321.104054,494.990604 302.740541,476.606711 302.740541,454.099329 C302.740541,431.591946 321.104054,413.208054 343.586486,413.208054 C366.068919,413.208054 384.432432,431.591946 384.432432,454.099329 C384.432432,476.606711 366.068919,494.990604 343.586486,494.990604 Z M395.244595,429.530201 L395.244595,429.530201 C385.977027,410.287248 366.412162,396.885906 343.586486,396.885906 C320.760811,396.885906 301.195946,410.287248 291.928378,429.530201 L234.778378,429.530201 C182.090541,429.530201 139.356757,386.577181 139.356757,334.002685 L139.356757,287.957047 C139.356757,235.210738 182.262162,192.42953 234.778378,192.42953 L289.354054,192.42953 C302.568919,192.42953 315.268919,195.178523 327.454054,200.332886 L433.344595,246.378523 C468.183784,261.497987 490.837838,296.032215 490.837838,334.002685 C490.666216,386.748993 447.932432,429.530201 395.244595,429.530201 Z" id="Shape" fill="#373937"></path>
                <path d="M343.586486,429.530201 C330.028378,429.530201 319.044595,440.526174 319.044595,454.099329 C319.044595,467.672483 330.028378,478.668456 343.586486,478.668456 C357.144595,478.668456 368.128378,467.672483 368.128378,454.099329 C368.128378,440.526174 357.144595,429.530201 343.586486,429.530201 Z M343.586486,462.346309 C339.124324,462.346309 335.348649,458.738255 335.348649,454.099329 C335.348649,449.460403 338.952703,445.852349 343.586486,445.852349 C348.22027,445.852349 351.824324,449.460403 351.824324,454.099329 C351.824324,458.738255 348.048649,462.346309 343.586486,462.346309 Z" id="Shape" fill="#373937"></path>
                <rect id="Rectangle-path" fill="#373937" x="335.348649" y="306.856376" width="16.3040541" height="16.3221477"></rect>
                <rect id="Rectangle-path" fill="#373937" x="376.366216" y="306.856376" width="16.3040541" height="16.3221477"></rect>
                <rect id="Rectangle-path" fill="#373937" x="417.212162" y="306.856376" width="16.3040541" height="16.3221477"></rect>
            </g>
        </g>
    </g>
</svg>