<?xml version="1.0" encoding="UTF-8"?>
<svg width="512px" height="512px" viewBox="0 0 512 512" version="1.1" xmlns="http://www.w3.org/2000/svg" xmlns:xlink="http://www.w3.org/1999/xlink">
    <!-- Generator: Sketch 46.1 (44463) - http://www.bohemiancoding.com/sketch -->
    <title>hiker</title>
    <desc>Created with Sketch.</desc>
    <defs></defs>
    <g id="Page-1" stroke="none" stroke-width="1" fill="none" fill-rule="evenodd">
        <g id="hiker" fill-rule="nonzero" fill="#373937">
            <g transform="translate(64.000000, 0.000000)" id="Shape">
                <path d="M382.459,182.784998 C380.942,180.712047 378.473,179.535345 375.912,179.672078 L365.494,180.199049 L365.494,82.6924912 C365.494,78.4887018 362.079,75.0793606 357.866,75.0793606 L336.704,75.0793606 C332.492,75.0793606 329.076,78.4877037 329.076,82.6924912 L329.076,182.038456 L327.816,182.102331 L327.815,182.102331 L254.64,185.251181 L225.854,157.715961 C227.423,147.503906 225.019,137.233965 219.021,128.702628 C217.623,126.714511 216.063,124.885084 214.373,123.210355 L217.809,99.209232 C223.348,98.8429474 228.564,96.6222846 232.7,92.7797895 C237.454,88.3634152 240.201,82.3801014 240.433,75.933692 L242.229,26.1159922 C242.462,19.6685848 240.152,13.5046238 235.727,8.75789474 C231.302,4.01216374 225.308,1.27151657 218.848,1.03996881 L190.35,0.0149707602 C176.953,-0.45311501 165.706,10.003462 165.225,23.3503938 L163.43,73.1680936 C163.197,79.615501 165.507,85.779462 169.932,90.526191 C170.659,91.3056686 171.432,92.0252632 172.239,92.6949552 L169.43,108.102862 L159.949,106.444101 C159.231,106.318347 158.517,106.253474 157.806,106.217544 L162.744,78.0974659 C163.545,73.5383704 162.512,68.9313684 159.837,65.1277973 C157.162,61.3232281 153.173,58.7891774 148.604,57.9897388 L109.334,51.121154 C99.88,49.4623938 90.843,55.7970214 89.187,65.2315945 L86.893,78.3020663 L72.974,74.829848 C70.927,74.317848 68.76,74.6771462 66.99,75.8189162 C65.218,76.9596881 63.998,78.7821287 63.621,80.8520858 L48.693,162.669287 C47.968,166.641528 50.475,170.486019 54.407,171.43317 L69.887,175.164881 L64.923,203.434667 C63.266,212.868242 69.609,221.889622 79.062,223.542394 L118.332,230.410979 C119.05,230.536733 119.764,230.600608 120.475,230.636538 L114.618,263.993388 L90.248,347.243789 L22.23,412.258807 C22.203,412.284756 22.179,412.314698 22.152,412.340647 C22.141,412.351626 22.128,412.361606 22.115,412.373583 L2.309,432.140975 C-0.67,435.114168 -0.67,439.934752 2.309,442.905949 L55.868,496.361544 C57.299,497.789754 59.238,498.591189 61.261,498.591189 C61.265,498.591189 61.27,498.591189 61.275,498.591189 C63.303,498.587197 65.245,497.777778 66.674,496.341583 L72.659,490.324335 C79.683,483.262129 80.313,472.052023 74.123,464.249263 L62.047,449.027992 L132.122,381.206456 C132.151,381.179509 132.179,381.150565 132.206,381.12262 C133.242,380.088639 134.186,378.965832 135.085,377.69731 C137.478,374.758051 139.183,371.437536 140.138,367.878487 L159.679,297.411119 L199.435,367.456312 L199.435,468.125692 L199.435,496.08209 C199.435,500.285879 202.85,503.69522 207.063,503.69522 L282.808,503.69522 C284.836,503.69522 286.78,502.889793 288.211,501.454596 C289.642,500.020398 290.442,498.077193 290.435,496.054144 L290.404,487.575704 C290.366,477.623142 282.87,469.253489 272.965,468.104733 L253.067,465.79724 L253.067,361.665622 C253.067,360.204476 252.939,358.744327 252.676,357.210324 C252.286,353.442682 251.138,349.89062 249.292,346.699852 L206.067,270.542596 L215.354,217.642916 L232.065,234.321341 C232.974,235.228569 234.09,235.88329 235.301,236.240593 C236.126,236.544998 237.016,236.710674 237.941,236.710674 C238.052,236.710674 238.164,236.708678 238.276,236.703688 L329.078,232.797318 L329.078,503.390815 C329.078,507.594604 332.493,511.003945 336.706,511.003945 L357.868,511.003945 C362.08,511.003945 365.496,507.595602 365.496,503.390815 L365.496,231.252335 C367.287,230.43094 368.737,228.944842 369.459,227.029583 L383.438,189.95699 C384.344,187.553684 383.976,184.857949 382.459,182.784998 Z M180.471,23.8973255 C180.646,19.0497934 184.653,15.2242651 189.475,15.2242651 C189.584,15.2242651 189.694,15.2262612 189.803,15.2302534 L218.304,16.2532554 C220.474,16.3311033 222.504,17.1894269 224.094,18.6725302 C211.798,32.0164678 191.517,38.6574971 179.836,41.5338791 L180.471,23.8973255 Z M179.266,57.3140585 C189.553,55.1213411 210.263,49.4424327 226.577,36.9119064 L225.19,75.3847641 C225.105,77.7671111 224.081,79.9857778 222.31,81.6325614 C220.537,83.278347 218.231,84.1316803 215.86,84.0518363 L187.358,83.0298324 C186.4,82.9949006 185.471,82.8032749 184.593,82.4809045 C184.15,82.214425 183.675,81.9918596 183.172,81.8181988 C182.414,81.3760624 181.716,80.817154 181.098,80.1554464 C179.448,78.3859025 178.588,76.1003665 178.674,73.7170214 L179.266,57.3140585 Z M202.458,98.8060195 L200.256,114.181988 C197.975,113.334643 195.603,112.68092 193.156,112.252756 L184.454,110.731727 L186.731,98.2411228 C186.757,98.2421209 186.783,98.245115 186.809,98.2461131 L202.458,98.8060195 Z M72.524,160.137232 L64.991,158.322776 L77.17,91.5711501 L84.253,93.3386979 L72.524,160.137232 Z M81.694,208.545684 C80.547,208.346074 79.746,207.208296 79.948,206.062534 L104.214,67.86046 C104.415,66.7156959 105.555,65.9192515 106.703,66.1178635 L145.973,72.9864483 C147.12,73.1860585 147.921,74.3238363 147.719,75.4695984 L129.937,176.743797 L123.453,213.672671 C123.252,214.817435 122.114,215.613879 120.965,215.414269 L81.694,208.545684 Z M62.163,473.700803 C63.563,475.466355 63.421,478.000405 61.832,479.598285 L61.24,480.193123 L18.488,437.523462 L26.844,429.18375 L45.786,453.059119 C45.791,453.066105 45.797,453.072094 45.802,453.07908 L62.163,473.700803 Z M125.421,363.877302 C124.997,365.458214 124.232,366.918363 123.149,368.215828 C123.002,368.391485 122.862,368.575127 122.732,368.763758 C122.313,369.368577 121.895,369.880577 121.454,370.32471 L52.53,437.031423 L37.797,418.460694 L102.273,356.832062 C103.238,355.909864 103.944,354.749131 104.319,353.46963 L127.466,274.399064 L148.732,278.117801 L149.049,278.675712 L125.421,363.877302 Z M271.204,483.224203 C273.446,483.483696 275.141,485.377996 275.149,487.6286 L275.152,488.465965 L214.691,488.465965 L214.691,476.671002 L271.204,483.224203 Z M240.655,221.361653 L169.882,150.726612 C166.903,147.753419 162.073,147.753419 159.096,150.726612 C156.117,153.699805 156.117,158.52039 159.096,161.491587 L202.179,204.490604 L190.571,270.603478 C190.266,272.342082 190.575,274.133583 191.447,275.669583 L236.052,354.25809 C236.873,355.67632 237.366,357.24825 237.518,358.930963 C237.539,359.158519 237.57,359.385076 237.611,359.608639 C237.747,360.352187 237.813,361.025871 237.813,361.664624 L237.813,464.023704 L214.692,461.34294 L214.692,365.448234 C214.692,364.132803 214.351,362.840327 213.701,361.695563 L163.883,273.921996 C163.88,273.916008 163.877,273.911018 163.873,273.905029 L160.828,268.540507 C160.754,268.409762 160.693,268.275025 160.628,268.140288 L160.499,267.877801 C159.422,265.702051 157.371,264.170043 154.977,263.750862 L130.887,259.537092 L154.828,123.182409 C155.029,122.037645 156.167,121.243197 157.316,121.439813 L173.501,124.270285 C173.731,124.33416 173.965,124.391049 174.205,124.434963 C174.474,124.483867 174.741,124.512811 175.007,124.53377 L190.525,127.248468 C197.025,128.385248 202.71,132.007173 206.536,137.447548 C207.426,138.713076 208.184,140.041481 208.816,141.413801 L199.159,132.176842 C196.118,129.267524 191.289,129.370324 188.375,132.405396 C185.461,135.440468 185.562,140.260055 188.604,143.168374 L246.439,198.491322 C247.941,199.928515 249.972,200.687033 252.046,200.601201 L320.855,197.639984 L321.729,217.87147 L240.655,221.361653 Z M344.333,90.3046238 L350.24,90.3046238 L350.24,180.749973 L344.333,180.749973 L344.333,90.3046238 Z M350.24,495.776686 L344.333,495.776686 L344.333,232.763384 L350.24,232.763384 L350.24,495.776686 Z M356.992,216.863439 L336.974,217.355478 L336.091,196.928374 L354.957,195.975236 L357.868,195.975236 C358.517,195.975236 359.143,195.886409 359.745,195.733708 L365.061,195.465232 L356.992,216.863439 Z"></path>
            </g>
        </g>
    </g>
</svg>