<?xml version="1.0" encoding="UTF-8"?>
<svg width="512px" height="512px" viewBox="0 0 512 512" version="1.1" xmlns="http://www.w3.org/2000/svg" xmlns:xlink="http://www.w3.org/1999/xlink">
    <!-- Generator: Sketch 46.1 (44463) - http://www.bohemiancoding.com/sketch -->
    <title>ruble</title>
    <desc>Created with Sketch.</desc>
    <defs></defs>
    <g id="Page-1" stroke="none" stroke-width="1" fill="none" fill-rule="evenodd">
        <g id="ruble" fill-rule="nonzero" fill="#373937">
            <g id="Shape">
                <path d="M256,0 C248.3,0 242.1,6.2 242.1,13.9 C242.1,21.6 248.3,27.8 256,27.8 C313.9,27.8 366.9,49.5 407.2,85.2 L374.4,118 C341.4,89.6 299.9,74.2 256,74.2 C210.8,74.2 169.5,90.7 137.6,118.1 L95,75.4 C94.9,75.3 94.8,75.3 94.8,75.2 C94.7,75.1 94.7,75 94.6,75 C89.2,69.6 80.4,69.6 75,75 C26.6,123.4 0,187.6 0,256 C0,397.2 114.8,512 256,512 C324.4,512 388.7,485.4 437,437 C485.4,388.6 512,324.4 512,256 C512,114.8 397.2,0 256,0 Z M365,147.1 C370.4,152.5 379.2,152.5 384.6,147.1 C385,146.7 385.4,146.3 385.7,145.8 C385.7,145.8 385.8,145.7 385.8,145.7 L426.8,104.7 C459.6,141.8 480.6,189.5 483.8,242 L468.4,242 C460.7,242 454.5,248.2 454.5,255.9 C454.5,263.6 460.7,269.8 468.4,269.8 L483.8,269.8 C480.8,320.9 460.9,368.9 426.9,407.2 L394,374.4 C421.3,342.6 437.9,301.2 437.9,256 C437.9,248.3 431.7,242.1 424,242.1 C416.3,242.1 410.1,248.3 410.1,256 C410.1,341 341,410.1 256,410.1 C171,410.1 101.9,341 101.9,256 C101.9,171 171,101.9 256,101.9 C297.2,101.9 335.9,117.9 365,147.1 Z M256,453.2 C248.3,453.2 242.1,459.4 242.1,467.1 L242.1,483.9 C189.6,480.7 141.8,459.7 104.8,426.9 L137.6,394 C169.4,421.3 210.8,437.9 256,437.9 C301.2,437.9 342.5,421.4 374.4,394 L407.3,426.9 C369,460.9 321,480.8 269.9,483.8 L269.9,467 C269.9,459.4 263.7,453.2 256,453.2 Z M28.2,269.9 L74.7,269.9 C77.7,309.6 93.6,345.8 118.1,374.4 L85.2,407.2 C52.3,370.1 31.4,322.4 28.2,269.9 Z M85.1,104.7 L118,137.6 C93.5,166.1 77.6,202.3 74.6,242.1 L28.1,242.1 C31.2,191 51.1,143 85.1,104.7 Z"></path>
                <path d="M278.2,273.7 C309.2,273.7 334.3,248.1 333.6,216.9 C332.9,186.6 307.4,162.8 277.2,162.8 L219.9,162.8 C216.6,162.8 213.9,165.5 213.9,168.8 L213.9,176.7 L213.9,246 L184.3,246 C181,246 178.3,248.7 178.3,252 L178.3,267.7 C178.3,271 181,273.7 184.3,273.7 L213.9,273.7 L213.9,289.8 L184.3,289.8 C181,289.8 178.3,292.5 178.3,295.8 L178.3,311.5 C178.3,314.8 181,317.5 184.3,317.5 L213.9,317.5 L213.9,343.2 C213.9,346.5 216.6,349.3 220,349.3 L235.5,349.3 C238.8,349.3 241.6,346.6 241.6,343.2 L241.6,317.5 L289.8,317.5 C293.1,317.5 295.8,314.8 295.8,311.5 L295.8,295.8 C295.8,292.5 293.1,289.8 289.8,289.8 L241.6,289.8 L241.6,273.7 L278.2,273.7 L278.2,273.7 Z M306,218.3 C306,233.6 293.5,246.1 278.2,246.1 L241.6,246.1 L241.6,190.6 L278.2,190.6 C293.5,190.5 306,203 306,218.3 Z"></path>
            </g>
        </g>
    </g>
</svg>