<?xml version="1.0" encoding="UTF-8"?>
<svg width="512px" height="512px" viewBox="0 0 512 512" version="1.1" xmlns="http://www.w3.org/2000/svg" xmlns:xlink="http://www.w3.org/1999/xlink">
    <!-- Generator: Sketch 46.1 (44463) - http://www.bohemiancoding.com/sketch -->
    <title>car</title>
    <desc>Created with Sketch.</desc>
    <defs></defs>
    <g id="Page-1" stroke="none" stroke-width="1" fill="none" fill-rule="evenodd">
        <g id="car" fill-rule="nonzero" fill="#373937">
            <g transform="translate(0.000000, 110.000000)" id="Shape">
                <path d="M102.4,214.591904 C93.013,214.591904 85.333,222.298296 85.333,231.717553 C85.333,241.136811 93.013,248.843203 102.4,248.843203 C111.787,248.843203 119.467,241.136811 119.467,231.717553 C119.467,222.298296 111.787,214.591904 102.4,214.591904 Z"></path>
                <path d="M409.6,214.591904 C400.213,214.591904 392.533,222.298296 392.533,231.717553 C392.533,241.136811 400.213,248.843203 409.6,248.843203 C418.987,248.843203 426.667,241.136811 426.667,231.717553 C426.667,222.298296 418.987,214.591904 409.6,214.591904 Z"></path>
                <path d="M511.147,206.029581 L511.147,133.246323 C511.147,121.258268 501.76,111.840014 489.814,111.840014 L454.827,111.840014 C430.08,111.840014 406.187,98.1400962 392.534,76.7327835 L363.521,28.781567 C353.281,11.6559175 333.654,0.524797251 313.174,0.524797251 L139.094,0.524797251 C118.614,0.524797251 99.841,11.6559175 88.747,28.781567 L46.08,98.1390928 C40.96,106.701416 31.573,111.83901 21.333,111.83901 C15.36,111.83901 10.24,114.407808 5.973,117.832536 C2.56,122.115203 0,127.252797 0,133.246323 L0,210.310241 C0,226.578955 13.653,240.279876 29.867,240.279876 L43.27,240.279876 C47.345,269.535065 72.023,291.655821 102.401,291.655821 C132.779,291.655821 157.457,269.535065 161.532,240.279876 L350.47,240.279876 C354.545,269.535065 379.223,291.655821 409.601,291.655821 C439.979,291.655821 464.657,269.535065 468.732,240.279876 L477.868,240.279876 C496.64,240.279876 512,224.867093 511.147,206.029581 Z M136.533,86.1520412 L136.533,51.9017457 L247.466,51.9017457 L247.466,86.1520412 L136.533,86.1520412 Z M264.533,51.9017457 L356.16,51.9017457 L377.493,86.1520412 L264.533,86.1520412 L264.533,51.9017457 L264.533,51.9017457 Z M102.4,274.530172 C78.507,274.530172 59.733,255.69266 59.733,231.71655 C59.733,207.741443 78.506,188.902928 102.4,188.902928 C126.293,188.902928 145.067,207.74044 145.067,231.71655 C145.067,255.69266 126.293,274.530172 102.4,274.530172 Z M409.6,274.530172 C385.707,274.530172 366.933,255.69266 366.933,231.71655 C366.933,207.741443 385.706,188.902928 409.6,188.902928 C433.493,188.902928 452.267,207.74044 452.267,231.71655 C452.267,255.69266 433.493,274.530172 409.6,274.530172 Z M477.013,223.154227 L468.73,223.154227 C464.655,193.899038 439.977,171.778282 409.599,171.778282 C409.461,171.778282 409.325,171.787313 409.187,171.788316 C409.039,171.787313 408.893,171.778282 408.746,171.778282 C378.879,171.778282 354.133,194.041526 349.866,223.154227 L161.531,223.154227 C157.71,195.721278 135.77,174.571849 108.003,172.043189 C107.8,172.024124 107.594,172.014089 107.39,171.997031 C106.691,171.940838 105.993,171.882639 105.287,171.849526 C104.33,171.803368 103.368,171.777278 102.4,171.777278 C101.432,171.777278 100.47,171.803368 99.513,171.849526 C98.807,171.882639 98.109,171.939835 97.41,171.997031 C97.206,172.014089 97,172.024124 96.797,172.043189 C69.03,174.571849 47.09,195.721278 43.269,223.154227 L29.867,223.154227 C23.04,223.154227 17.067,217.160701 17.067,210.310241 L17.067,171.778282 L42.667,171.778282 C47.787,171.778282 51.2,168.353553 51.2,163.215959 C51.2,158.078364 47.787,154.653636 42.667,154.653636 L17.067,154.653636 L17.067,133.246323 C17.067,132.390392 17.067,131.533457 18.774,130.677526 C19.627,129.821595 20.481,128.96466 22.187,128.96466 C37.547,128.96466 52.907,120.402337 60.587,107.558351 L103.254,38.2008247 C110.934,25.3568385 124.587,17.6504467 139.094,17.6504467 L313.174,17.6504467 C326.088,17.6504467 338.311,23.7704055 345.659,34.7760962 L134.827,34.7760962 C126.294,34.7760962 119.467,41.6265567 119.467,50.1888797 L119.467,87.8649072 C119.467,96.4272302 126.294,103.277691 134.827,103.277691 L390.789,103.277691 C407.418,120.039093 430.351,129.821595 454.827,129.821595 L489.814,129.821595 C492.374,129.821595 494.081,131.53446 494.081,134.103258 L494.081,154.653636 L469.334,154.653636 C464.214,154.653636 460.801,158.078364 460.801,163.215959 C460.801,168.353553 464.214,171.778282 469.334,171.778282 L494.081,171.778282 L494.081,206.028577 C494.08,215.447835 486.4,223.154227 477.013,223.154227 Z"></path>
                <path d="M298.667,128.965663 L256,128.965663 C250.88,128.965663 247.467,132.390392 247.467,137.527986 C247.467,142.665581 250.88,146.090309 256,146.090309 L290.133,146.090309 L290.133,154.652632 C290.133,159.790227 293.546,163.214955 298.666,163.214955 C303.786,163.214955 307.199,159.790227 307.199,154.652632 L307.199,137.526983 C307.2,132.390392 303.787,128.965663 298.667,128.965663 Z"></path>
            </g>
        </g>
    </g>
</svg>