<?xml version="1.0" encoding="UTF-8"?>
<svg width="512px" height="512px" viewBox="0 0 512 512" version="1.1" xmlns="http://www.w3.org/2000/svg" xmlns:xlink="http://www.w3.org/1999/xlink">
    <!-- Generator: Sketch 46.1 (44463) - http://www.bohemiancoding.com/sketch -->
    <title>suv</title>
    <desc>Created with Sketch.</desc>
    <defs></defs>
    <g id="Page-1" stroke="none" stroke-width="1" fill="none" fill-rule="evenodd">
        <g id="suv" fill-rule="nonzero" fill="#373937">
            <g transform="translate(0.000000, 42.000000)" id="Shape">
                <path d="M503.397801,87.196 L423.404039,87.196 C421.082573,87.196 419.006628,88.241 417.612351,89.885 L407.79253,6.905 C407.338417,3.071 404.094752,0.183 400.241279,0.183 L112.136982,0.183 C108.283509,0.183 105.039844,3.071 104.585731,6.905 L94.5463392,91.731 C93.3646472,89.06 90.6998519,87.195 87.5969123,87.195 L7.60414815,87.195 C3.40435088,87.195 0,90.605 0,94.814 L0,141.413 C0,145.116 2.65581287,148.282 6.29670175,148.919 L75.6103236,161.032 C69.9813177,170.651 66.7386511,181.833 66.7386511,193.766 L66.7386511,218.2 L32.4855517,218.2 C28.2847563,218.2 24.8814035,221.61 24.8814035,225.819 L24.8814035,329.046 C24.8814035,329.135 24.891384,329.223 24.8943782,329.312 C24.891384,329.401 24.8814035,329.489 24.8814035,329.578 L24.8814035,420.199 C24.8814035,424.407 28.2847563,427.818 32.4855517,427.818 L118.990596,427.818 C123.190394,427.818 126.594745,424.408 126.594745,420.199 L126.594745,336.665 L385.783517,336.665 L385.783517,420.199 C385.783517,424.407 389.186869,427.818 393.387665,427.818 L479.89271,427.818 C484.092507,427.818 487.496858,424.408 487.496858,420.199 L487.496858,329.578 C487.496858,329.489 487.486877,329.401 487.483883,329.312 C487.486877,329.223 487.496858,329.135 487.496858,329.046 L487.496858,225.819 C487.496858,221.61 484.093505,218.2 479.89271,218.2 L445.640608,218.2 L445.640608,193.766 C445.640608,181.744 442.351033,170.482 436.643181,160.814 L504.706246,148.92 C508.347135,148.283 511.002947,145.117 511.002947,141.414 L511.002947,94.815 C511.001949,90.606 507.598596,87.196 503.397801,87.196 Z M118.892788,15.419 L393.48747,15.419 L407.595914,134.649 C399.430862,130.923 390.372554,128.829 380.831189,128.829 L374.999579,128.829 L367.249715,44.343 C366.890417,40.423 363.60683,37.422 359.677505,37.422 L144.360047,37.422 C140.430721,37.422 137.148133,40.423 136.787836,44.343 L129.032982,128.893 C120.414815,129.224 112.226807,131.252 104.783345,134.65 L118.892788,15.419 Z M359.726409,128.83 L144.310144,128.83 L151.296499,52.66 L352.740055,52.66 L359.726409,128.83 Z M81.9459493,225.817 L81.9459493,193.764 C81.9459493,166.359 104.196491,144.065 131.54807,144.065 L380.831189,144.065 C408.182768,144.065 430.43331,166.359 430.43331,193.764 L430.43331,225.817 L430.43331,272.497 L319.245474,272.497 L319.245474,171.518 C319.245474,167.309 315.842121,163.899 311.641326,163.899 C307.441528,163.899 304.037177,167.309 304.037177,171.518 L304.037177,272.497 L281.754698,272.497 L281.754698,171.518 C281.754698,167.309 278.351345,163.899 274.15055,163.899 C269.949754,163.899 266.546402,167.309 266.546402,171.518 L266.546402,272.497 L244.26492,272.497 L244.26492,171.518 C244.26492,167.309 240.861567,163.899 236.660772,163.899 C232.459977,163.899 229.056624,167.309 229.056624,171.518 L229.056624,272.497 L210.528811,272.497 L210.528811,171.518 C210.528811,167.309 207.125458,163.899 202.924663,163.899 C198.723867,163.899 195.320515,167.309 195.320515,171.518 L195.320515,272.497 L81.9459493,272.497 L81.9459493,225.817 Z M15.2072982,135.009 L15.2072982,102.433 L79.9937622,102.433 L79.9937622,146.331 L15.2072982,135.009 Z M40.0887018,233.436 L66.7386511,233.436 L66.7386511,280.116 L66.7386511,321.426 L40.0887018,321.426 L40.0887018,233.436 Z M111.386448,412.58 L40.0887018,412.58 L40.0887018,337.197 L111.386448,337.197 L111.386448,412.58 Z M81.9459493,321.427 L81.9459493,287.736 L430.432312,287.736 L430.432312,321.427 L81.9459493,321.427 Z M445.640608,280.116 L445.640608,233.436 L472.290558,233.436 L472.290558,321.426 L445.640608,321.426 L445.640608,280.116 Z M472.289559,337.196 L472.289559,412.579 L400.991813,412.579 L400.991813,337.196 L472.289559,337.196 Z M495.794651,135.009 L431.009185,146.331 L431.009185,102.433 L495.794651,102.433 L495.794651,135.009 L495.794651,135.009 Z"></path>
                <path d="M139.39175,158.997 C118.820928,158.997 102.084616,175.766 102.084616,196.378 C102.084616,216.99 118.820928,233.759 139.39175,233.759 C159.963571,233.759 176.699883,216.99 176.699883,196.378 C176.699883,175.766 159.963571,158.997 139.39175,158.997 Z M139.39175,218.522 C127.205552,218.522 117.291914,208.588 117.291914,196.378 C117.291914,184.168 127.205552,174.234 139.39175,174.234 C151.577949,174.234 161.492585,184.168 161.492585,196.378 C161.492585,208.588 151.577949,218.522 139.39175,218.522 Z"></path>
                <path d="M371.088218,158.997 C350.517396,158.997 333.781084,175.766 333.781084,196.378 C333.781084,216.99 350.517396,233.759 371.088218,233.759 C391.660039,233.759 408.396351,216.99 408.396351,196.378 C408.396351,175.766 391.660039,158.997 371.088218,158.997 Z M371.088218,218.522 C358.902019,218.522 348.988382,208.588 348.988382,196.378 C348.988382,184.168 358.902019,174.234 371.088218,174.234 C383.274417,174.234 393.189053,184.168 393.189053,196.378 C393.189053,208.588 383.274417,218.522 371.088218,218.522 Z"></path>
            </g>
        </g>
    </g>
</svg>